<svg xmlns="http://www.w3.org/2000/svg" version="1.1" xmlns:xlink="http://www.w3.org/1999/xlink" xmlns:svgjs="http://svgjs.dev/svgjs" width="1500" height="606" viewBox="0 0 1500 606"><g transform="matrix(1,0,0,1,-0.9090909090911055,-1.7363982452926052)"><svg viewBox="0 0 396 160" data-background-color="#575c5f" preserveAspectRatio="xMidYMid meet" height="606" width="1500" xmlns="http://www.w3.org/2000/svg" xmlns:xlink="http://www.w3.org/1999/xlink"><g id="tight-bounds" transform="matrix(1,0,0,1,0.24000000000003752,0.4584549822554749)"><svg viewBox="0 0 395.5199999999999 159.08309003548905" height="159.08309003548905" width="395.5199999999999"><g><svg viewBox="0 0 395.5199999999999 159.08309003548905" height="159.08309003548905" width="395.5199999999999"><g transform="matrix(1,0,0,1,0,116.94384319775867)"><svg viewBox="0 0 395.5199999999999 42.13924683773039" height="42.13924683773039" width="395.5199999999999"><g id="textblocktransform"><svg viewBox="0 0 395.5199999999999 42.13924683773039" height="42.13924683773039" width="395.5199999999999" id="textblock"><g><svg viewBox="0 0 395.5199999999999 42.13924683773039" height="42.13924683773039" width="395.5199999999999"><g transform="matrix(1,0,0,1,0,0)"><svg width="395.5199999999999" viewBox="3.49 -35.5 337.73 35.99" height="42.13924683773039" data-palette-color="#dedad7"><path d="M23.19-8.11L23.19-8.11Q23.19-6.32 22.52-4.76 21.85-3.2 20.68-2.03 19.51-0.85 17.94-0.18 16.38 0.49 14.6 0.49L14.6 0.49 12.11 0.49Q10.33 0.49 8.75-0.18 7.18-0.85 6.01-2.03 4.83-3.2 4.16-4.76 3.49-6.32 3.49-8.11L3.49-8.11 3.49-26.9Q3.49-28.69 4.16-30.25 4.83-31.81 6.01-32.98 7.18-34.16 8.75-34.83 10.33-35.5 12.11-35.5L12.11-35.5 14.6-35.5Q16.38-35.5 17.94-34.83 19.51-34.16 20.68-32.98 21.85-31.81 22.52-30.25 23.19-28.69 23.19-26.9L23.19-26.9 23.19-25.49 20.04-25 20.04-26.9Q20.04-28.08 19.6-29.09 19.17-30.1 18.41-30.86 17.65-31.62 16.64-32.06 15.63-32.5 14.45-32.5L14.45-32.5 12.26-32.5Q11.08-32.5 10.07-32.06 9.06-31.62 8.29-30.86 7.52-30.1 7.08-29.09 6.64-28.08 6.64-26.9L6.64-26.9 6.64-8.11Q6.64-6.93 7.08-5.92 7.52-4.91 8.29-4.14 9.06-3.37 10.07-2.93 11.08-2.49 12.26-2.49L12.26-2.49 14.45-2.49Q15.63-2.49 16.64-2.93 17.65-3.37 18.41-4.14 19.17-4.91 19.6-5.92 20.04-6.93 20.04-8.11L20.04-8.11 20.04-10.01 23.19-9.5 23.19-8.11ZM49.9 0L30.2 0 30.2-35.01 49.9-35.01 49.9-32.01 33.35-32.01 33.35-18.99 46.75-18.99 46.75-15.99 33.35-15.99 33.35-3 49.9-3 49.9 0ZM59.05 0L55.9 0 55.9-35.01 59.05-35.01 59.05 0ZM82.51 0L80.19-8.15 69.11-8.15 66.81 0 63.54 0 73.8-35.01 75.46-35.01 85.76 0 82.51 0ZM74.55-27.29L69.96-11.16 79.36-11.16 74.75-27.29 74.65-28.59 74.55-27.29ZM109.58-15.31L100.23-15.31 100.23-18.14 109.58-18.14 109.58-15.31ZM135.29-9.16L135.29-8.11Q135.29-6.32 134.57-4.76 133.85-3.2 132.64-2.03 131.43-0.85 129.83-0.18 128.23 0.49 126.45 0.49L126.45 0.49 123.94 0.49Q122.15 0.49 120.55-0.18 118.95-0.85 117.75-2.03 116.54-3.2 115.82-4.76 115.1-6.32 115.1-8.11L115.1-8.11 115.1-9.5 118.25-10.01 118.25-8.11Q118.25-6.93 118.72-5.92 119.2-4.91 120-4.14 120.81-3.37 121.87-2.93 122.93-2.49 124.11-2.49L124.11-2.49 126.3-2.49Q127.48-2.49 128.53-2.93 129.57-3.37 130.38-4.14 131.19-4.91 131.66-5.92 132.14-6.93 132.14-8.11L132.14-8.11 132.14-9.16Q132.14-10.96 131.43-12.16 130.72-13.35 129.55-14.2 128.38-15.04 126.9-15.63 125.42-16.21 123.86-16.8 122.3-17.38 120.82-18.09 119.35-18.8 118.17-19.86 117-20.92 116.29-22.46 115.59-24 115.59-26.25L115.59-26.25 115.59-26.9Q115.59-28.69 116.26-30.25 116.93-31.81 118.1-32.98 119.27-34.16 120.85-34.83 122.42-35.5 124.2-35.5L124.2-35.5 126.45-35.5Q128.23-35.5 129.79-34.83 131.36-34.16 132.53-32.98 133.7-31.81 134.37-30.25 135.04-28.69 135.04-26.9L135.04-26.9 135.04-26 131.89-25.49 131.89-26.9Q131.89-28.08 131.45-29.09 131.02-30.1 130.26-30.86 129.5-31.62 128.49-32.06 127.48-32.5 126.3-32.5L126.3-32.5 124.35-32.5Q123.18-32.5 122.17-32.06 121.15-31.62 120.38-30.86 119.61-30.1 119.17-29.09 118.74-28.08 118.74-26.9L118.74-26.9 118.74-26.25Q118.74-24.56 119.44-23.41 120.15-22.27 121.32-21.45 122.49-20.63 123.97-20.03 125.45-19.43 127.01-18.81 128.57-18.19 130.05-17.44 131.53-16.7 132.7-15.61 133.87-14.53 134.58-12.96 135.29-11.4 135.29-9.16L135.29-9.16ZM161.75-22.05L161.75-22.05Q161.75-20.26 161.08-18.7 160.41-17.14 159.24-15.97 158.06-14.79 156.49-14.12 154.91-13.45 153.13-13.45L153.13-13.45 145.2-13.45 145.2 0 142.05 0 142.05-35.01 153.13-35.01Q154.91-35.01 156.49-34.34 158.06-33.67 159.24-32.5 160.41-31.32 161.08-29.75 161.75-28.17 161.75-26.39L161.75-26.39 161.75-22.05ZM158.6-22.05L158.6-26.39Q158.6-27.56 158.16-28.58 157.72-29.59 156.95-30.36 156.18-31.13 155.17-31.57 154.16-32.01 152.99-32.01L152.99-32.01 145.2-32.01 145.2-16.46 152.99-16.46Q154.16-16.46 155.17-16.89 156.18-17.33 156.95-18.09 157.72-18.85 158.16-19.86 158.6-20.87 158.6-22.05L158.6-22.05ZM183.21 0L180.89-8.15 169.8-8.15 167.51 0 164.24 0 174.49-35.01 176.15-35.01 186.45 0 183.21 0ZM175.25-27.29L170.66-11.16 180.06-11.16 175.44-27.29 175.35-28.59 175.25-27.29ZM208.64 0L188.94 0 188.94-1.49 204.54-32.01 189.43-32.01 189.43-35.01 208.64-35.01 208.64-33.5 193.04-3 208.64-3 208.64 0ZM233.98-15.31L224.63-15.31 224.63-18.14 233.98-18.14 233.98-15.31ZM260.59 0L256.95 0 247.46-14.94 243.13-14.94 243.13 0 239.98 0 239.98-35.01 251.09-35.01Q252.88-35.01 254.44-34.34 256-33.67 257.17-32.5 258.34-31.32 259.02-29.75 259.69-28.17 259.69-26.39L259.69-26.39 259.69-23.56Q259.69-21.78 259.02-20.2 258.34-18.63 257.17-17.46 256-16.28 254.44-15.61 252.88-14.94 251.09-14.94L251.09-14.94 260.59 0ZM256.54-23.56L256.54-26.39Q256.54-27.56 256.1-28.58 255.66-29.59 254.9-30.36 254.14-31.13 253.13-31.57 252.12-32.01 250.95-32.01L250.95-32.01 243.13-32.01 243.13-17.94 250.95-17.94Q252.12-17.94 253.13-18.38 254.14-18.82 254.9-19.59 255.66-20.36 256.1-21.37 256.54-22.39 256.54-23.56L256.54-23.56ZM286.3 0L266.59 0 266.59-35.01 286.3-35.01 286.3-32.01 269.74-32.01 269.74-18.99 283.15-18.99 283.15-15.99 269.74-15.99 269.74-3 286.3-3 286.3 0ZM292.05-35.01L299.79-7.69 299.89-6.4 299.99-7.69 307.75-35.01 311-35.01 300.7 0 299.04 0 288.78-35.01 292.05-35.01ZM314.54 0L310.78 0 310.78-3.76 314.54-3.76 314.54 0ZM341.22-8.11L341.22-8.11Q341.22-6.32 340.55-4.76 339.88-3.2 338.71-2.03 337.53-0.85 335.97-0.18 334.41 0.49 332.63 0.49L332.63 0.49 330.14 0.49Q328.35 0.49 326.78-0.18 325.2-0.85 324.03-2.03 322.86-3.2 322.19-4.76 321.52-6.32 321.52-8.11L321.52-8.11 321.52-26.9Q321.52-28.69 322.19-30.25 322.86-31.81 324.03-32.98 325.2-34.16 326.78-34.83 328.35-35.5 330.14-35.5L330.14-35.5 332.63-35.5Q334.41-35.5 335.97-34.83 337.53-34.16 338.71-32.98 339.88-31.81 340.55-30.25 341.22-28.69 341.22-26.9L341.22-26.9 341.22-8.11ZM338.07-8.11L338.07-26.9Q338.07-28.08 337.63-29.09 337.19-30.1 336.43-30.86 335.68-31.62 334.66-32.06 333.65-32.5 332.48-32.5L332.48-32.5 330.28-32.5Q329.11-32.5 328.1-32.06 327.08-31.62 326.31-30.86 325.55-30.1 325.11-29.09 324.67-28.08 324.67-26.9L324.67-26.9 324.67-8.11Q324.67-6.93 325.11-5.92 325.55-4.91 326.31-4.14 327.08-3.37 328.1-2.93 329.11-2.49 330.28-2.49L330.28-2.49 332.48-2.49Q333.65-2.49 334.66-2.93 335.68-3.37 336.43-4.14 337.19-4.91 337.63-5.92 338.07-6.93 338.07-8.11L338.07-8.11Z" opacity="1" transform="matrix(1,0,0,1,0,0)" fill="#dedad7" class="wordmark-text-0" data-fill-palette-color="primary" id="text-0"></path></svg></g></svg></g></svg></g></svg></g><g transform="matrix(1,0,0,1,149.23614323758466,0)"><svg viewBox="0 0 97.04771352483058 97.04771352483058" height="97.04771352483058" width="97.04771352483058"><g><svg></svg></g><g id="icon-0"><svg viewBox="0 0 97.04771352483058 97.04771352483058" height="97.04771352483058" width="97.04771352483058"><g><path d="M0 48.524c0-26.799 21.725-48.524 48.524-48.524 26.799 0 48.524 21.725 48.524 48.524 0 26.799-21.725 48.524-48.524 48.524-26.799 0-48.524-21.725-48.524-48.524zM48.524 93.248c24.7 0 44.724-20.023 44.724-44.724 0-24.7-20.023-44.724-44.724-44.724-24.7 0-44.724 20.023-44.724 44.724 0 24.7 20.023 44.724 44.724 44.724z" data-fill-palette-color="tertiary" fill="#dedad7" stroke="transparent"></path></g><g transform="matrix(1,0,0,1,29.900594693264477,25.541381654238258)"><svg viewBox="0 0 37.24652413830163 45.96495021635407" height="45.96495021635407" width="37.24652413830163"><g><svg xmlns="http://www.w3.org/2000/svg" xmlns:xlink="http://www.w3.org/1999/xlink" version="1.1" x="0" y="0" viewBox="10.53 1.290000000000001 78.941 97.419" enable-background="new 0 0 100 100" xml:space="preserve" height="45.96495021635407" width="37.24652413830163" class="icon-dxe-0" data-fill-palette-color="accent" id="dxe-0"><path d="M60.24 34.32V38.397A1.1 1.1 0 0 1 59.14 39.496H55.988C55.382 39.496 54.888 39.003 54.888 38.397V34.32z" fill="#b4bfc5" data-fill-palette-color="accent"></path><path d="M79.738 24.802H77.434V15.944H73.372V24.802H48.092A7.01 7.01 0 0 0 41.084 31.81V98.709H50.131V68.425H54.488V98.709H63.312V34.164H73.373V63.946H77.435V34.164H79.739A3.74 3.74 0 0 0 83.479 30.426V28.543A3.74 3.74 0 0 0 79.738 24.802M60.554 38.397C60.554 39.175 59.92 39.809 59.141 39.809H55.989A1.414 1.414 0 0 1 54.577 38.397V34.006H56.07V31.254H57.011V34.006H58.11V31.609H59.051V34.006H60.554z" fill="#b4bfc5" data-fill-palette-color="accent"></path><circle cx="52.198" cy="10.522" r="9.2" fill="#b4bfc5" data-fill-palette-color="accent"></circle><path d="M72.422 15.875V21.837H61.43S61.689 18.857 64.007 18.857H68.933S71.347 18.685 71.347 15.876z" fill="#b4bfc5" data-fill-palette-color="accent"></path><path d="M78.3 15.875V21.837H89.471S89.211 18.857 86.894 18.857H81.968S79.553 18.685 79.553 15.876z" fill="#b4bfc5" data-fill-palette-color="accent"></path><path d="M34.042 28.393H12.884A2.357 2.357 0 0 0 10.53 30.747V63.159A2.36 2.36 0 0 0 12.884 65.513H34.042A2.36 2.36 0 0 0 36.396 63.159V30.746A2.355 2.355 0 0 0 34.042 28.393M34.199 63.158A0.157 0.157 0 0 1 34.042 63.315H12.884A0.16 0.16 0 0 1 12.727 63.158V30.746C12.727 30.658 12.799 30.589 12.884 30.589H34.042C34.13 30.589 34.199 30.658 34.199 30.746z" fill="#b4bfc5" data-fill-palette-color="accent"></path><rect x="25.201" y="33.853" width="1.453" height="2.903" fill="#b4bfc5" data-fill-palette-color="accent"></rect><path d="M19.097 32.711V37.999H31.622V32.711zM27.282 37.384H24.574V33.226H27.282zM30.771 37.384H28.066V33.226H30.771z" fill="#b4bfc5" data-fill-palette-color="accent"></path><rect x="14.676" y="39.943" width="3.684" height="4.707" fill="#b4bfc5" data-fill-palette-color="accent"></rect><rect x="19.097" y="39.943" width="3.685" height="4.707" fill="#b4bfc5" data-fill-palette-color="accent"></rect><rect x="23.518" y="39.943" width="3.684" height="4.707" fill="#b4bfc5" data-fill-palette-color="accent"></rect><rect x="27.938" y="39.943" width="3.685" height="4.707" fill="#b4bfc5" data-fill-palette-color="accent"></rect><rect x="14.676" y="45.33" width="3.684" height="4.708" fill="#b4bfc5" data-fill-palette-color="accent"></rect><rect x="19.097" y="45.33" width="3.685" height="4.708" fill="#b4bfc5" data-fill-palette-color="accent"></rect><rect x="23.518" y="45.33" width="3.684" height="4.708" fill="#b4bfc5" data-fill-palette-color="accent"></rect><rect x="27.938" y="45.33" width="3.685" height="4.708" fill="#b4bfc5" data-fill-palette-color="accent"></rect><rect x="14.676" y="50.719" width="3.684" height="4.707" fill="#b4bfc5" data-fill-palette-color="accent"></rect><rect x="19.097" y="50.719" width="3.685" height="4.707" fill="#b4bfc5" data-fill-palette-color="accent"></rect><rect x="23.518" y="50.719" width="3.684" height="4.707" fill="#b4bfc5" data-fill-palette-color="accent"></rect><rect x="27.938" y="50.719" width="3.685" height="4.707" fill="#b4bfc5" data-fill-palette-color="accent"></rect><rect x="14.676" y="56.105" width="3.684" height="4.708" fill="#b4bfc5" data-fill-palette-color="accent"></rect><rect x="19.097" y="56.105" width="3.685" height="4.708" fill="#b4bfc5" data-fill-palette-color="accent"></rect><rect x="23.518" y="56.105" width="3.684" height="4.708" fill="#b4bfc5" data-fill-palette-color="accent"></rect><rect x="27.938" y="56.105" width="3.685" height="4.708" fill="#b4bfc5" data-fill-palette-color="accent"></rect><polyline points="30.144,33.853 28.694,33.853 28.694,36.756 30.144,36.756 " fill="#b4bfc5" data-fill-palette-color="accent"></polyline></svg></g></svg></g></svg></g></svg></g><g></g></svg></g><defs></defs></svg><rect width="395.5199999999999" height="159.08309003548905" fill="none" stroke="none" visibility="hidden"></rect></g></svg></g></svg>